<?xml version="1.0" encoding="utf-8"?>
<!-- Generator: Adobe Illustrator 18.1.0, SVG Export Plug-In . SVG Version: 6.00 Build 0)  -->
<!DOCTYPE svg PUBLIC "-//W3C//DTD SVG 1.1//EN" "http://www.w3.org/Graphics/SVG/1.1/DTD/svg11.dtd">
<svg version="1.1" id="Layer_1" xmlns="http://www.w3.org/2000/svg" xmlns:xlink="http://www.w3.org/1999/xlink" x="0px" y="0px"
	 width="128px" height="128px" viewBox="0 0 128 128" enable-background="new 0 0 128 128" xml:space="preserve">
<g>
	<path fill-rule="evenodd" clip-rule="evenodd" fill="#005CB9" d="M128.1,63.9c0-35.3-28.7-64-64-64c-35.3,0-64,28.7-64,64
		c0,35.4,28.7,64,64,64C99.4,127.9,128.1,99.4,128.1,63.9L128.1,63.9L128.1,63.9z M125,63.9c0,33.7-27.3,61-60.9,61
		c-33.7,0-61-27.3-61-61c0-33.7,27.3-61,61-61C97.8,2.9,125,30.4,125,63.9L125,63.9L125,63.9z M121.1,63.9
		c0-20.2-10.3-41.2-32.5-47.9c-4.6-1.4-8.5-2.3-12.9-2.3c-10.3,0-10.6,5.8-15.4,5.8c-2.6,0-4.4-1.9-4.4-4.2c0-4.1,4.8-7.2,12.4-7.2
		c7.1,0,12.6,1.8,13.6,2.3l0.2-0.5c-1.9-0.7-8.7-3.1-18-3.1c-20.4,0-41.2,10.5-47.9,32.5c-1.4,4.6-2.3,8.5-2.3,12.9
		c0,10.3,5.8,10.8,5.8,15.6c0,2.5-1.9,4.3-4.2,4.3c-4.1,0-7.2-4.6-7.2-12.4c0-7.1,1.8-12.6,2.1-13.6l-0.5-0.2C9.3,48,7,54.5,7,63.9
		c0,20.6,10.5,41.3,32.5,48c4.6,1.4,8.5,2.3,12.9,2.3c10.3,0,10.6-6,15.4-6c2.5,0,4.5,2,4.5,4.4c0,3.9-4.7,7.1-12.4,7.1
		c-7.1,0-12.8-1.8-13.6-2.1l-0.2,0.5c1.9,0.9,8.7,2.8,18.1,2.8c20.4,0,41.3-10.3,47.9-32.5c1.4-4.4,2.3-8.5,2.3-12.8
		c0-10.4-5.8-10.8-5.8-15.6c0-2.6,1.8-4.4,4.2-4.4c4.1,0,7.3,4.8,7.3,12.6c0,6.9-1.8,12.4-2.1,13.6l0.5,0.2
		C119,80.1,121.1,73.5,121.1,63.9L121.1,63.9L121.1,63.9z M99.7,80.9c0,8-6.9,16.3-17,16.3c-12.2,0-18.4-10.3-18.4-19.5
		c0-12.9,8.8-18.4,12.6-20.4c-0.7-0.5-1.3-1.2-1.8-2.1c-4.3,3-8.2,5.7-16.3,10.3c-0.4,5.7-0.9,11.9-2.3,16.1
		c-3,9-9.2,15.6-17.4,15.6c-6.9,0-10.3-5-10.3-10.3c0-3.9,2.3-8.8,6.4-12.6c5.2-4.6,10.8-7.4,18.6-11.5c0.2-1,0.4-2.1,0.5-3.4
		c-2,1.8-4.8,2.5-7.1,2.5c-3.7,0-6.7-3.2-7.4-6.6c-5-0.4-8.7-3.9-8.9-9.6c0-4.1,1.6-7.6,4.3-7.6c1,0,1.4,0.9,1.4,1.6
		c0,0.7-0.9,3-0.9,5.3c0,2.3,1.1,5.3,3.9,5.3c0-9.2,6.7-21.1,14.7-21.1c5.3,0,6,3.9,6,5.7c0,8.3-8.3,17.5-15.1,19.8
		c0.2,0.7,0.9,2.7,3.1,2.7c2.6,0,5.8-2.5,7.4-4.5c0.7-3.7,3.4-9,6.9-9c1.4,0,2.1,1,2.1,2.3c0,2.6-2.8,6-5,8.3
		c-0.3,1.8-0.5,3.7-0.5,5.3c6.2-3.7,9.4-5.7,14-9c-0.4-1.2-0.4-2.7-0.4-4.1c0-8.3,5.5-17.6,12.8-17.6c4.1,0,6.2,2.9,6.2,6.1
		c0,6-5.1,11.3-12.4,16.8c0.5,1.4,1.4,2.6,2.8,3.4c0.2-0.4,2.5-0.7,4.4-0.7c2.1,0,5.1,0.5,5.1,2.7c0,2.5-3.4,3-6,3
		c-1.4,0.2-3.7-0.4-3.7-0.4c-3.9,1-11.3,5.5-11.3,16.8c0,7.7,4.8,14.7,12.3,14.7c5.7,0,10.3-4.2,10.4-10.8c0-4.2-1.8-8.7-6-8.7
		c-2.1,0-4.1,1.6-4.1,3.9c-0.2,3.6,2.5,3.9,2.5,6.2c0,1.6-1.2,2.3-2.5,2.3c-3.6,0-6.2-3.6-6.2-8c0-5.3,4.6-9.8,10.7-9.8
		C95.6,66.9,99.7,73.7,99.7,80.9L99.7,80.9L99.7,80.9z M86.6,36.3c0-0.9-0.2-2-1.3-2c-2.6,0-6.9,5.7-6.9,12.9
		C83.7,42.6,86.6,38.7,86.6,36.3L86.6,36.3L86.6,36.3z M55.2,35.5c0-0.9-0.5-1.2-1.2-1.2c-3.7,0-9,9.8-9,15.6
		C50.8,46.7,55.2,39.5,55.2,35.5L55.2,35.5L55.2,35.5z M53.1,68.7C45.1,72.6,35,79.5,35,87.1c0,2.8,1.4,4.6,4.1,4.6
		C46.8,91.7,51.6,79.3,53.1,68.7L53.1,68.7L53.1,68.7z"/>
</g>
</svg>
