<svg xmlns="http://www.w3.org/2000/svg" width="128" height="128" viewBox="0 0 128 128"><path fill-rule="evenodd" clip-rule="evenodd" fill="#005CB9" d="M128.1 63.9c0-35.3-28.7-64-64-64s-64 28.7-64 64c0 35.4 28.7 64 64 64s64-28.5 64-64zm-3.1 0c0 33.7-27.3 61-60.9 61-33.7 0-61-27.3-61-61s27.3-61 61-61 60.9 27.5 60.9 61zm-3.9 0c0-20.2-10.3-41.2-32.5-47.9-4.6-1.4-8.5-2.3-12.9-2.3-10.3 0-10.6 5.8-15.4 5.8-2.6 0-4.4-1.9-4.4-4.2 0-4.1 4.8-7.2 12.4-7.2 7.1 0 12.6 1.8 13.6 2.3l.2-.5c-1.9-.7-8.7-3.1-18-3.1-20.4 0-41.2 10.5-47.9 32.5-1.4 4.6-2.3 8.5-2.3 12.9 0 10.3 5.8 10.8 5.8 15.6 0 2.5-1.9 4.3-4.2 4.3-4.1 0-7.2-4.6-7.2-12.4 0-7.1 1.8-12.6 2.1-13.6l-.5-.2C9.3 48 7 54.5 7 63.9c0 20.6 10.5 41.3 32.5 48 4.6 1.4 8.5 2.3 12.9 2.3 10.3 0 10.6-6 15.4-6 2.5 0 4.5 2 4.5 4.4 0 3.9-4.7 7.1-12.4 7.1-7.1 0-12.8-1.8-13.6-2.1l-.2.5c1.9.9 8.7 2.8 18.1 2.8 20.4 0 41.3-10.3 47.9-32.5 1.4-4.4 2.3-8.5 2.3-12.8 0-10.4-5.8-10.8-5.8-15.6 0-2.6 1.8-4.4 4.2-4.4 4.1 0 7.3 4.8 7.3 12.6 0 6.9-1.8 12.4-2.1 13.6l.5.2c.5-1.9 2.6-8.5 2.6-18.1zm-21.4 17c0 8-6.9 16.3-17 16.3-12.2 0-18.4-10.3-18.4-19.5 0-12.9 8.8-18.4 12.6-20.4-.7-.5-1.3-1.2-1.8-2.1-4.3 3-8.2 5.7-16.3 10.3-.4 5.7-.9 11.9-2.3 16.1-3 9-9.2 15.6-17.4 15.6-6.9 0-10.3-5-10.3-10.3 0-3.9 2.3-8.8 6.4-12.6 5.2-4.6 10.8-7.4 18.6-11.5.2-1 .4-2.1.5-3.4-2 1.8-4.8 2.5-7.1 2.5-3.7 0-6.7-3.2-7.4-6.6-5-.4-8.7-3.9-8.9-9.6 0-4.1 1.6-7.6 4.3-7.6 1 0 1.4.9 1.4 1.6 0 .7-.9 3-.9 5.3s1.1 5.3 3.9 5.3c0-9.2 6.7-21.1 14.7-21.1 5.3 0 6 3.9 6 5.7 0 8.3-8.3 17.5-15.1 19.8.2.7.9 2.7 3.1 2.7 2.6 0 5.8-2.5 7.4-4.5.7-3.7 3.4-9 6.9-9 1.4 0 2.1 1 2.1 2.3 0 2.6-2.8 6-5 8.3-.3 1.8-.5 3.7-.5 5.3 6.2-3.7 9.4-5.7 14-9-.4-1.2-.4-2.7-.4-4.1 0-8.3 5.5-17.6 12.8-17.6 4.1 0 6.2 2.9 6.2 6.1 0 6-5.1 11.3-12.4 16.8.5 1.4 1.4 2.6 2.8 3.4.2-.4 2.5-.7 4.4-.7 2.1 0 5.1.5 5.1 2.7 0 2.5-3.4 3-6 3-1.4.2-3.7-.4-3.7-.4-3.9 1-11.3 5.5-11.3 16.8 0 7.7 4.8 14.7 12.3 14.7 5.7 0 10.3-4.2 10.4-10.8 0-4.2-1.8-8.7-6-8.7-2.1 0-4.1 1.6-4.1 3.9-.2 3.6 2.5 3.9 2.5 6.2 0 1.6-1.2 2.3-2.5 2.3-3.6 0-6.2-3.6-6.2-8 0-5.3 4.6-9.8 10.7-9.8 7.8.3 11.9 7.1 11.9 14.3zM86.6 36.3c0-.9-.2-2-1.3-2-2.6 0-6.9 5.7-6.9 12.9 5.3-4.6 8.2-8.5 8.2-10.9zm-31.4-.8c0-.9-.5-1.2-1.2-1.2-3.7 0-9 9.8-9 15.6 5.8-3.2 10.2-10.4 10.2-14.4zm-2.1 33.2C45.1 72.6 35 79.5 35 87.1c0 2.8 1.4 4.6 4.1 4.6 7.7 0 12.5-12.4 14-23z"/></svg>